# xmcd CD database file
# Copyright (C) 1993-1998 Ti Kan
# 
# Track frame offsets:
#     180
#     15628
#     31733
#     46408
#     62853
#     78697
#     98805
#     117781
#     128997
#     148930
#     165882
#     181393
# 
# Disc length: 2643 seconds
# 
# Revision: 1
# Processed by: cddbd v1.4b41PL1 Copyright (c) Steve Scherf et al.
# Submitted via: DiscPlay 4.0.4
# 
DISCID=9c0a510c
DTITLE=Mary Davis - take me up
DYEAR=1900
DGENRE=
TTITLE0=Talk To Me
TTITLE1=Reflection
TTITLE2=He's Just a Man to Me
TTITLE3=Windflower
TTITLE4=Morter and Stone
TTITLE5=The Rose of Love
TTITLE6=Take Me Up
TTITLE7=A Drop of Rain
TTITLE8=Nightingale
TTITLE9=Just Today
TTITLE10=Can't We Go Back Again
TTITLE11=If You Stay
EXTD=
EXTT0=
EXTT1=
EXTT2=
EXTT3=
EXTT4=
EXTT5=
EXTT6=
EXTT7=
EXTT8=
EXTT9=
EXTT10=
EXTT11=
PLAYORDER=
